<?xml version="1.0" standalone="no"?>
<!DOCTYPE svg PUBLIC "-//W3C//DTD SVG 20010904//EN"
 "http://www.w3.org/TR/2001/REC-SVG-20010904/DTD/svg10.dtd">
<svg version="1.0" xmlns="http://www.w3.org/2000/svg"
 width="139.000000pt" height="135.000000pt" viewBox="0 0 139.000000 135.000000"
 preserveAspectRatio="xMidYMid meet">

<g transform="translate(0.000000,135.000000) scale(0.100000,-0.100000)"
fill="#000000" stroke="none">
<path d="M179 1282 c-76 -39 -114 -103 -114 -186 1 -39 7 -73 19 -96 11 -19
83 -100 162 -180 l143 -146 -144 -144 c-178 -178 -203 -224 -175 -324 25 -92
108 -155 203 -156 80 0 113 21 269 177 l147 147 148 -145 c167 -164 202 -185
297 -177 102 8 177 85 184 188 7 98 -6 119 -172 288 l-150 153 147 147 c157
157 177 189 177 272 0 115 -97 210 -215 210 -64 0 -126 -44 -270 -189 l-139
-141 -146 145 c-195 193 -254 218 -371 157z"/>
</g>
</svg>
