<?xml version="1.0" standalone="no"?>
<!DOCTYPE svg PUBLIC "-//W3C//DTD SVG 20010904//EN"
 "http://www.w3.org/TR/2001/REC-SVG-20010904/DTD/svg10.dtd">
<svg version="1.0" xmlns="http://www.w3.org/2000/svg"
 width="100.000000pt" height="100.000000pt" viewBox="0 0 100.000000 100.000000"
 preserveAspectRatio="xMidYMid meet">

<g transform="translate(0.000000,100.000000) scale(0.100000,-0.100000)"
fill="#000000" stroke="none">
<path d="M84 986 c-3 -7 -4 -38 -2 -67 l3 -54 114 -5 113 -5 -126 -150 -127
-149 3 -56 3 -55 235 0 235 0 0 65 0 65 -123 5 -124 5 127 145 126 144 -3 61
-3 60 -223 3 c-182 2 -223 0 -228 -12z"/>
<path d="M604 686 c-3 -7 -4 -33 -2 -57 l3 -44 74 -3 75 -3 -88 -88 -87 -88 3
-49 3 -49 175 0 175 0 0 55 0 55 -84 3 -85 3 88 88 87 88 -3 49 -3 49 -163 3
c-132 2 -163 0 -168 -12z"/>
<path d="M224 366 c-3 -8 -4 -29 -2 -48 l3 -33 73 -3 c39 -2 72 -5 72 -8 0 -2
-34 -46 -75 -96 -71 -85 -76 -94 -73 -132 l3 -41 155 0 155 0 0 45 0 45 -72 3
c-40 2 -73 5 -73 8 0 2 34 46 75 96 71 85 76 94 73 132 l-3 41 -153 3 c-125 2
-153 0 -158 -12z"/>
</g>
</svg>
