<?xml version="1.0" standalone="no"?>
<!DOCTYPE svg PUBLIC "-//W3C//DTD SVG 20010904//EN"
 "http://www.w3.org/TR/2001/REC-SVG-20010904/DTD/svg10.dtd">
<svg version="1.0" xmlns="http://www.w3.org/2000/svg"
 width="141.000000pt" height="141.000000pt" viewBox="0 0 141.000000 141.000000"
 preserveAspectRatio="xMidYMid meet">

<g transform="translate(0.000000,141.000000) scale(0.100000,-0.100000)"
fill="#000000" stroke="none">
<path d="M584 1399 c-138 -23 -265 -91 -374 -199 -128 -128 -195 -275 -207
-454 -20 -312 181 -611 478 -711 108 -36 266 -45 378 -21 208 44 395 195 487
393 91 194 86 424 -13 623 -28 57 -60 97 -128 166 -78 78 -104 98 -185 137
-144 69 -287 91 -436 66z m219 -435 c64 -22 129 -82 157 -146 28 -63 31 -163
8 -219 -20 -45 -72 -105 -118 -134 -143 -90 -350 -17 -405 144 -76 222 134
431 358 355z"/>
</g>
</svg>
